<?xml version="1.0" encoding="utf-8"?>
<svg version="1.1" id="Layer_1" x="0px" y="0px" viewBox="58.412 34.437 270.658 51.892" style="enable-background:new 0 0 598.9 120.2;" xmlns="http://www.w3.org/2000/svg">
  <style type="text/css">
	.st0{fill:#0091D0;}
</style>
  <path class="st0" d="M 194.941 52.933 C 189.341 52.933 186.741 53.633 186.741 57.533 C 186.741 61.533 189.541 62.233 194.941 62.233 C 200.241 62.233 203.141 61.633 203.141 57.633 C 203.041 53.633 200.141 52.933 194.941 52.933 M 193.641 66.733 C 184.341 66.733 180.441 64.033 180.441 57.533 C 180.441 51.033 184.341 48.333 193.641 48.333 L 196.141 48.333 C 205.441 48.333 209.241 51.033 209.341 57.533 C 209.241 64.133 205.441 66.733 196.141 66.733 L 193.641 66.733 Z"/>
  <polygon class="st0" points="281.641 36.533 273.341 44.633 279.741 44.633 283.441 40.933 319.541 40.933 299.241 78.833 271.941 70.733 271.941 75.433 301.441 84.233 327.041 36.533"/>
  <path class="st0" d="M 118.941 66.833 L 118.941 56.433 C 118.941 54.333 117.141 52.933 114.141 52.933 L 106.241 52.933 L 106.241 66.833 L 100.041 66.833 L 100.041 43.333 L 106.241 43.333 L 106.241 48.333 L 117.041 48.333 C 122.041 48.333 125.241 50.833 125.241 54.833 L 125.241 66.833 L 118.941 66.833 Z"/>
  <path class="st0" d="M 232.441 66.733 L 232.441 56.433 C 232.441 54.333 230.641 52.933 227.641 52.933 L 219.741 52.933 L 219.741 66.733 L 213.541 66.733 L 213.541 48.333 L 230.541 48.333 C 235.541 48.333 238.741 50.833 238.741 54.833 C 238.741 58.233 238.741 66.833 238.741 66.833 L 232.441 66.833 L 232.441 66.733 Z"/>
  <path class="st0" d="M 67.541 56.433 L 82.541 56.433 C 87.541 56.433 88.841 55.633 88.841 52.633 L 88.841 52.233 C 88.841 49.233 87.441 48.433 82.441 48.433 L 67.541 48.433 L 67.541 56.433 Z M 60.441 66.833 L 60.441 43.333 L 83.741 43.333 C 92.541 43.333 95.841 45.833 95.841 52.333 L 95.841 52.933 C 95.841 59.133 92.341 61.633 83.741 61.633 L 67.541 61.633 L 67.541 66.833 L 60.441 66.833 Z"/>
  <path class="st0" d="M 171.741 66.733 C 164.841 66.733 162.541 64.833 162.541 59.233 L 162.541 43.233 L 168.641 43.233 L 168.641 48.233 L 177.241 48.233 L 177.241 52.433 L 168.641 52.433 L 168.641 58.233 C 168.641 62.133 170.341 62.633 174.141 62.633 L 177.241 62.633 L 177.241 66.733 L 171.741 66.733 Z"/>
  <path class="st0" d="M 143.941 52.933 C 138.341 52.933 135.741 53.633 135.741 57.533 C 135.741 61.533 138.541 62.233 143.941 62.233 C 149.241 62.233 152.141 61.633 152.141 57.633 C 152.041 53.633 149.141 52.933 143.941 52.933 M 142.641 66.733 C 133.341 66.733 129.441 64.033 129.441 57.533 C 129.441 51.033 133.341 48.333 142.641 48.333 L 145.141 48.333 C 154.441 48.333 158.241 51.033 158.341 57.533 C 158.241 64.133 154.441 66.733 145.141 66.733 L 142.641 66.733 Z"/>
  <path class="st0" d="M 289.941 52.933 C 284.341 52.933 281.741 53.633 281.741 57.533 C 281.741 61.533 284.541 62.233 289.941 62.233 C 295.241 62.233 298.141 61.633 298.141 57.633 C 298.141 53.633 295.241 52.933 289.941 52.933 M 288.741 66.733 C 279.441 66.733 275.541 64.033 275.541 57.533 C 275.541 51.033 279.441 48.333 288.741 48.333 L 291.241 48.333 C 300.541 48.333 304.341 51.033 304.441 57.533 C 304.341 64.133 300.541 66.733 291.241 66.733 L 288.741 66.733 Z"/>
  <path class="st0" d="M 256.141 48.333 C 246.841 48.333 242.941 51.033 242.941 57.533 C 242.941 64.133 246.841 66.733 256.141 66.733 L 271.341 66.733 L 271.341 62.133 L 257.041 62.133 C 251.941 62.133 249.241 61.333 249.241 57.433 C 249.241 53.633 251.641 52.933 257.041 52.833 L 264.941 52.833 L 258.541 59.133 L 264.941 59.133 L 271.341 52.833 L 271.341 48.233 L 256.141 48.233 L 256.141 48.333 Z"/>
</svg>